ISO-10303-21;
HEADER;
/* Generated by software containing ST-Developer
 * from STEP Tools, Inc. (www.steptools.com) 
 */

FILE_DESCRIPTION(
/* description */ (''),
/* implementation_level */ '2;1');

FILE_NAME(
/* name */ 'dehumidifier panel for last resort fila cab.step',
/* time_stamp */ '2026-09-13T11:40:26+08:00',
/* author */ (''),
/* organization */ (''),
/* preprocessor_version */ 'ST-DEVELOPER v20.2',
/* originating_system */ 'Autodesk Translation Framework v15.15.0.0',
/* authorisation */ '');

FILE_SCHEMA (('AUTOMOTIVE_DESIGN { 1 0 10303 214 3 1 1 }'));
ENDSEC;

DATA;
#10=MECHANICAL_DESIGN_GEOMETRIC_PRESENTATION_REPRESENTATION('',(#23,#24),
#906);
#11=SHAPE_REPRESENTATION_RELATIONSHIP('SRR','None',#913,#12);
#12=ADVANCED_BREP_SHAPE_REPRESENTATION('',(#25,#26),#905);
#13=FACE_BOUND('',#77,.T.);
#14=FACE_BOUND('',#78,.T.);
#15=FACE_BOUND('',#79,.T.);
#16=FACE_BOUND('',#80,.T.);
#17=FACE_BOUND('',#81,.T.);
#18=FACE_BOUND('',#94,.T.);
#19=FACE_BOUND('',#95,.T.);
#20=FACE_BOUND('',#96,.T.);
#21=FACE_BOUND('',#97,.T.);
#22=FACE_BOUND('',#98,.T.);
#23=STYLED_ITEM('',(#922),#25);
#24=STYLED_ITEM('',(#922),#26);
#25=MANIFOLD_SOLID_BREP('Body1',#533);
#26=MANIFOLD_SOLID_BREP('Body2',#534);
#27=CYLINDRICAL_SURFACE('',#552,2.);
#28=CYLINDRICAL_SURFACE('',#555,2.);
#29=CYLINDRICAL_SURFACE('',#573,1.);
#30=CYLINDRICAL_SURFACE('',#576,1.);
#31=CYLINDRICAL_SURFACE('',#579,1.);
#32=CYLINDRICAL_SURFACE('',#582,1.);
#33=CYLINDRICAL_SURFACE('',#585,2.);
#34=CYLINDRICAL_SURFACE('',#594,2.);
#35=CYLINDRICAL_SURFACE('',#596,1.7);
#36=CYLINDRICAL_SURFACE('',#597,1.7);
#37=CYLINDRICAL_SURFACE('',#598,1.7);
#38=CYLINDRICAL_SURFACE('',#599,1.7);
#39=FACE_OUTER_BOUND('',#67,.T.);
#40=FACE_OUTER_BOUND('',#68,.T.);
#41=FACE_OUTER_BOUND('',#69,.T.);
#42=FACE_OUTER_BOUND('',#70,.T.);
#43=FACE_OUTER_BOUND('',#71,.T.);
#44=FACE_OUTER_BOUND('',#72,.T.);
#45=FACE_OUTER_BOUND('',#73,.T.);
#46=FACE_OUTER_BOUND('',#74,.T.);
#47=FACE_OUTER_BOUND('',#75,.T.);
#48=FACE_OUTER_BOUND('',#76,.T.);
#49=FACE_OUTER_BOUND('',#82,.T.);
#50=FACE_OUTER_BOUND('',#83,.T.);
#51=FACE_OUTER_BOUND('',#84,.T.);
#52=FACE_OUTER_BOUND('',#85,.T.);
#53=FACE_OUTER_BOUND('',#86,.T.);
#54=FACE_OUTER_BOUND('',#87,.T.);
#55=FACE_OUTER_BOUND('',#88,.T.);
#56=FACE_OUTER_BOUND('',#89,.T.);
#57=FACE_OUTER_BOUND('',#90,.T.);
#58=FACE_OUTER_BOUND('',#91,.T.);
#59=FACE_OUTER_BOUND('',#92,.T.);
#60=FACE_OUTER_BOUND('',#93,.T.);
#61=FACE_OUTER_BOUND('',#99,.T.);
#62=FACE_OUTER_BOUND('',#100,.T.);
#63=FACE_OUTER_BOUND('',#101,.T.);
#64=FACE_OUTER_BOUND('',#102,.T.);
#65=FACE_OUTER_BOUND('',#103,.T.);
#66=FACE_OUTER_BOUND('',#104,.T.);
#67=EDGE_LOOP('',(#345,#346,#347,#348,#349,#350));
#68=EDGE_LOOP('',(#351,#352,#353,#354));
#69=EDGE_LOOP('',(#355,#356,#357,#358));
#70=EDGE_LOOP('',(#359,#360,#361,#362));
#71=EDGE_LOOP('',(#363,#364,#365,#366));
#72=EDGE_LOOP('',(#367,#368,#369,#370,#371,#372));
#73=EDGE_LOOP('',(#373,#374,#375,#376));
#74=EDGE_LOOP('',(#377,#378,#379,#380));
#75=EDGE_LOOP('',(#381,#382,#383,#384));
#76=EDGE_LOOP('',(#385,#386,#387,#388,#389,#390));
#77=EDGE_LOOP('',(#391,#392,#393,#394,#395,#396,#397,#398));
#78=EDGE_LOOP('',(#399));
#79=EDGE_LOOP('',(#400));
#80=EDGE_LOOP('',(#401));
#81=EDGE_LOOP('',(#402));
#82=EDGE_LOOP('',(#403,#404,#405,#406));
#83=EDGE_LOOP('',(#407,#408,#409,#410));
#84=EDGE_LOOP('',(#411,#412,#413,#414));
#85=EDGE_LOOP('',(#415,#416,#417,#418));
#86=EDGE_LOOP('',(#419,#420,#421,#422));
#87=EDGE_LOOP('',(#423,#424,#425,#426));
#88=EDGE_LOOP('',(#427,#428,#429,#430));
#89=EDGE_LOOP('',(#431,#432,#433,#434));
#90=EDGE_LOOP('',(#435,#436,#437,#438));
#91=EDGE_LOOP('',(#439,#440,#441,#442));
#92=EDGE_LOOP('',(#443,#444,#445,#446));
#93=EDGE_LOOP('',(#447,#448,#449,#450,#451,#452));
#94=EDGE_LOOP('',(#453));
#95=EDGE_LOOP('',(#454));
#96=EDGE_LOOP('',(#455));
#97=EDGE_LOOP('',(#456));
#98=EDGE_LOOP('',(#457,#458,#459,#460,#461,#462,#463,#464));
#99=EDGE_LOOP('',(#465,#466,#467,#468));
#100=EDGE_LOOP('',(#469,#470,#471,#472));
#101=EDGE_LOOP('',(#473,#474,#475,#476));
#102=EDGE_LOOP('',(#477,#478,#479,#480));
#103=EDGE_LOOP('',(#481,#482,#483,#484));
#104=EDGE_LOOP('',(#485,#486,#487,#488));
#105=CIRCLE('',#549,2.);
#106=CIRCLE('',#550,2.);
#107=CIRCLE('',#553,2.);
#108=CIRCLE('',#556,2.);
#109=CIRCLE('',#562,2.);
#110=CIRCLE('',#563,2.);
#111=CIRCLE('',#564,1.);
#112=CIRCLE('',#565,1.);
#113=CIRCLE('',#566,1.);
#114=CIRCLE('',#567,1.);
#115=CIRCLE('',#568,1.7);
#116=CIRCLE('',#569,1.7);
#117=CIRCLE('',#570,1.7);
#118=CIRCLE('',#571,1.7);
#119=CIRCLE('',#574,1.);
#120=CIRCLE('',#577,1.);
#121=CIRCLE('',#580,1.);
#122=CIRCLE('',#583,1.);
#123=CIRCLE('',#586,2.);
#124=CIRCLE('',#589,2.);
#125=CIRCLE('',#590,1.7);
#126=CIRCLE('',#591,1.7);
#127=CIRCLE('',#592,1.7);
#128=CIRCLE('',#593,1.7);
#129=LINE('',#758,#177);
#130=LINE('',#760,#178);
#131=LINE('',#764,#179);
#132=LINE('',#767,#180);
#133=LINE('',#770,#181);
#134=LINE('',#772,#182);
#135=LINE('',#773,#183);
#136=LINE('',#776,#184);
#137=LINE('',#780,#185);
#138=LINE('',#781,#186);
#139=LINE('',#784,#187);
#140=LINE('',#788,#188);
#141=LINE('',#789,#189);
#142=LINE('',#791,#190);
#143=LINE('',#796,#191);
#144=LINE('',#798,#192);
#145=LINE('',#800,#193);
#146=LINE('',#801,#194);
#147=LINE('',#804,#195);
#148=LINE('',#808,#196);
#149=LINE('',#811,#197);
#150=LINE('',#814,#198);
#151=LINE('',#818,#199);
#152=LINE('',#822,#200);
#153=LINE('',#826,#201);
#154=LINE('',#838,#202);
#155=LINE('',#839,#203);
#156=LINE('',#844,#204);
#157=LINE('',#845,#205);
#158=LINE('',#848,#206);
#159=LINE('',#849,#207);
#160=LINE('',#854,#208);
#161=LINE('',#855,#209);
#162=LINE('',#857,#210);
#163=LINE('',#862,#211);
#164=LINE('',#863,#212);
#165=LINE('',#865,#213);
#166=LINE('',#869,#214);
#167=LINE('',#871,#215);
#168=LINE('',#875,#216);
#169=LINE('',#878,#217);
#170=LINE('',#879,#218);
#171=LINE('',#882,#219);
#172=LINE('',#893,#220);
#173=LINE('',#896,#221);
#174=LINE('',#898,#222);
#175=LINE('',#900,#223);
#176=LINE('',#902,#224);
#177=VECTOR('',#604,10.);
#178=VECTOR('',#605,10.);
#179=VECTOR('',#608,10.);
#180=VECTOR('',#611,10.);
#181=VECTOR('',#614,10.);
#182=VECTOR('',#615,10.);
#183=VECTOR('',#616,10.);
#184=VECTOR('',#619,10.);
#185=VECTOR('',#624,10.);
#186=VECTOR('',#625,10.);
#187=VECTOR('',#628,10.);
#188=VECTOR('',#633,10.);
#189=VECTOR('',#634,10.);
#190=VECTOR('',#637,10.);
#191=VECTOR('',#642,10.);
#192=VECTOR('',#643,10.);
#193=VECTOR('',#644,10.);
#194=VECTOR('',#645,10.);
#195=VECTOR('',#648,10.);
#196=VECTOR('',#651,10.);
#197=VECTOR('',#654,10.);
#198=VECTOR('',#655,10.);
#199=VECTOR('',#658,10.);
#200=VECTOR('',#661,10.);
#201=VECTOR('',#664,10.);
#202=VECTOR('',#677,10.);
#203=VECTOR('',#678,10.);
#204=VECTOR('',#683,10.);
#205=VECTOR('',#684,10.);
#206=VECTOR('',#687,10.);
#207=VECTOR('',#688,10.);
#208=VECTOR('',#693,10.);
#209=VECTOR('',#694,10.);
#210=VECTOR('',#697,10.);
#211=VECTOR('',#702,10.);
#212=VECTOR('',#703,10.);
#213=VECTOR('',#706,10.);
#214=VECTOR('',#711,10.);
#215=VECTOR('',#714,10.);
#216=VECTOR('',#719,10.);
#217=VECTOR('',#722,10.);
#218=VECTOR('',#723,10.);
#219=VECTOR('',#726,10.);
#220=VECTOR('',#739,10.);
#221=VECTOR('',#744,1.7);
#222=VECTOR('',#747,1.7);
#223=VECTOR('',#750,1.7);
#224=VECTOR('',#753,1.7);
#225=VERTEX_POINT('',#756);
#226=VERTEX_POINT('',#757);
#227=VERTEX_POINT('',#759);
#228=VERTEX_POINT('',#761);
#229=VERTEX_POINT('',#763);
#230=VERTEX_POINT('',#765);
#231=VERTEX_POINT('',#769);
#232=VERTEX_POINT('',#771);
#233=VERTEX_POINT('',#775);
#234=VERTEX_POINT('',#779);
#235=VERTEX_POINT('',#783);
#236=VERTEX_POINT('',#787);
#237=VERTEX_POINT('',#794);
#238=VERTEX_POINT('',#795);
#239=VERTEX_POINT('',#797);
#240=VERTEX_POINT('',#799);
#241=VERTEX_POINT('',#803);
#242=VERTEX_POINT('',#805);
#243=VERTEX_POINT('',#807);
#244=VERTEX_POINT('',#809);
#245=VERTEX_POINT('',#812);
#246=VERTEX_POINT('',#813);
#247=VERTEX_POINT('',#815);
#248=VERTEX_POINT('',#817);
#249=VERTEX_POINT('',#819);
#250=VERTEX_POINT('',#821);
#251=VERTEX_POINT('',#823);
#252=VERTEX_POINT('',#825);
#253=VERTEX_POINT('',#828);
#254=VERTEX_POINT('',#830);
#255=VERTEX_POINT('',#832);
#256=VERTEX_POINT('',#834);
#257=VERTEX_POINT('',#837);
#258=VERTEX_POINT('',#841);
#259=VERTEX_POINT('',#842);
#260=VERTEX_POINT('',#847);
#261=VERTEX_POINT('',#851);
#262=VERTEX_POINT('',#852);
#263=VERTEX_POINT('',#859);
#264=VERTEX_POINT('',#860);
#265=VERTEX_POINT('',#867);
#266=VERTEX_POINT('',#873);
#267=VERTEX_POINT('',#877);
#268=VERTEX_POINT('',#881);
#269=VERTEX_POINT('',#884);
#270=VERTEX_POINT('',#886);
#271=VERTEX_POINT('',#888);
#272=VERTEX_POINT('',#890);
#273=EDGE_CURVE('',#225,#226,#129,.T.);
#274=EDGE_CURVE('',#225,#227,#130,.T.);
#275=EDGE_CURVE('',#228,#227,#105,.T.);
#276=EDGE_CURVE('',#228,#229,#131,.T.);
#277=EDGE_CURVE('',#230,#229,#106,.T.);
#278=EDGE_CURVE('',#230,#226,#132,.T.);
#279=EDGE_CURVE('',#226,#231,#133,.T.);
#280=EDGE_CURVE('',#232,#230,#134,.T.);
#281=EDGE_CURVE('',#231,#232,#135,.T.);
#282=EDGE_CURVE('',#229,#233,#136,.T.);
#283=EDGE_CURVE('',#233,#232,#107,.T.);
#284=EDGE_CURVE('',#234,#228,#137,.T.);
#285=EDGE_CURVE('',#233,#234,#138,.T.);
#286=EDGE_CURVE('',#227,#235,#139,.T.);
#287=EDGE_CURVE('',#235,#234,#108,.T.);
#288=EDGE_CURVE('',#231,#236,#140,.T.);
#289=EDGE_CURVE('',#235,#236,#141,.T.);
#290=EDGE_CURVE('',#236,#225,#142,.T.);
#291=EDGE_CURVE('',#237,#238,#143,.T.);
#292=EDGE_CURVE('',#239,#237,#144,.T.);
#293=EDGE_CURVE('',#240,#239,#145,.T.);
#294=EDGE_CURVE('',#238,#240,#146,.T.);
#295=EDGE_CURVE('',#239,#241,#147,.T.);
#296=EDGE_CURVE('',#242,#241,#109,.T.);
#297=EDGE_CURVE('',#242,#243,#148,.T.);
#298=EDGE_CURVE('',#244,#243,#110,.T.);
#299=EDGE_CURVE('',#244,#240,#149,.T.);
#300=EDGE_CURVE('',#245,#246,#150,.T.);
#301=EDGE_CURVE('',#247,#246,#111,.T.);
#302=EDGE_CURVE('',#247,#248,#151,.T.);
#303=EDGE_CURVE('',#249,#248,#112,.T.);
#304=EDGE_CURVE('',#249,#250,#152,.T.);
#305=EDGE_CURVE('',#251,#250,#113,.T.);
#306=EDGE_CURVE('',#251,#252,#153,.T.);
#307=EDGE_CURVE('',#245,#252,#114,.T.);
#308=EDGE_CURVE('',#253,#253,#115,.T.);
#309=EDGE_CURVE('',#254,#254,#116,.T.);
#310=EDGE_CURVE('',#255,#255,#117,.T.);
#311=EDGE_CURVE('',#256,#256,#118,.T.);
#312=EDGE_CURVE('',#257,#237,#154,.T.);
#313=EDGE_CURVE('',#241,#257,#155,.T.);
#314=EDGE_CURVE('',#258,#259,#119,.T.);
#315=EDGE_CURVE('',#259,#245,#156,.T.);
#316=EDGE_CURVE('',#252,#258,#157,.T.);
#317=EDGE_CURVE('',#259,#260,#158,.T.);
#318=EDGE_CURVE('',#246,#260,#159,.T.);
#319=EDGE_CURVE('',#261,#262,#120,.T.);
#320=EDGE_CURVE('',#262,#251,#160,.T.);
#321=EDGE_CURVE('',#250,#261,#161,.T.);
#322=EDGE_CURVE('',#262,#258,#162,.T.);
#323=EDGE_CURVE('',#263,#264,#121,.T.);
#324=EDGE_CURVE('',#264,#249,#163,.T.);
#325=EDGE_CURVE('',#248,#263,#164,.T.);
#326=EDGE_CURVE('',#264,#261,#165,.T.);
#327=EDGE_CURVE('',#260,#265,#122,.T.);
#328=EDGE_CURVE('',#265,#247,#166,.T.);
#329=EDGE_CURVE('',#265,#263,#167,.T.);
#330=EDGE_CURVE('',#257,#266,#123,.T.);
#331=EDGE_CURVE('',#266,#242,#168,.T.);
#332=EDGE_CURVE('',#267,#266,#169,.T.);
#333=EDGE_CURVE('',#243,#267,#170,.T.);
#334=EDGE_CURVE('',#238,#268,#171,.T.);
#335=EDGE_CURVE('',#267,#268,#124,.T.);
#336=EDGE_CURVE('',#269,#269,#125,.T.);
#337=EDGE_CURVE('',#270,#270,#126,.T.);
#338=EDGE_CURVE('',#271,#271,#127,.T.);
#339=EDGE_CURVE('',#272,#272,#128,.T.);
#340=EDGE_CURVE('',#268,#244,#172,.T.);
#341=EDGE_CURVE('',#253,#272,#173,.T.);
#342=EDGE_CURVE('',#254,#271,#174,.T.);
#343=EDGE_CURVE('',#255,#270,#175,.T.);
#344=EDGE_CURVE('',#256,#269,#176,.T.);
#345=ORIENTED_EDGE('',*,*,#273,.F.);
#346=ORIENTED_EDGE('',*,*,#274,.T.);
#347=ORIENTED_EDGE('',*,*,#275,.F.);
#348=ORIENTED_EDGE('',*,*,#276,.T.);
#349=ORIENTED_EDGE('',*,*,#277,.F.);
#350=ORIENTED_EDGE('',*,*,#278,.T.);
#351=ORIENTED_EDGE('',*,*,#279,.F.);
#352=ORIENTED_EDGE('',*,*,#278,.F.);
#353=ORIENTED_EDGE('',*,*,#280,.F.);
#354=ORIENTED_EDGE('',*,*,#281,.F.);
#355=ORIENTED_EDGE('',*,*,#277,.T.);
#356=ORIENTED_EDGE('',*,*,#282,.T.);
#357=ORIENTED_EDGE('',*,*,#283,.T.);
#358=ORIENTED_EDGE('',*,*,#280,.T.);
#359=ORIENTED_EDGE('',*,*,#284,.F.);
#360=ORIENTED_EDGE('',*,*,#285,.F.);
#361=ORIENTED_EDGE('',*,*,#282,.F.);
#362=ORIENTED_EDGE('',*,*,#276,.F.);
#363=ORIENTED_EDGE('',*,*,#275,.T.);
#364=ORIENTED_EDGE('',*,*,#286,.T.);
#365=ORIENTED_EDGE('',*,*,#287,.T.);
#366=ORIENTED_EDGE('',*,*,#284,.T.);
#367=ORIENTED_EDGE('',*,*,#288,.F.);
#368=ORIENTED_EDGE('',*,*,#281,.T.);
#369=ORIENTED_EDGE('',*,*,#283,.F.);
#370=ORIENTED_EDGE('',*,*,#285,.T.);
#371=ORIENTED_EDGE('',*,*,#287,.F.);
#372=ORIENTED_EDGE('',*,*,#289,.T.);
#373=ORIENTED_EDGE('',*,*,#290,.F.);
#374=ORIENTED_EDGE('',*,*,#289,.F.);
#375=ORIENTED_EDGE('',*,*,#286,.F.);
#376=ORIENTED_EDGE('',*,*,#274,.F.);
#377=ORIENTED_EDGE('',*,*,#288,.T.);
#378=ORIENTED_EDGE('',*,*,#290,.T.);
#379=ORIENTED_EDGE('',*,*,#273,.T.);
#380=ORIENTED_EDGE('',*,*,#279,.T.);
#381=ORIENTED_EDGE('',*,*,#291,.F.);
#382=ORIENTED_EDGE('',*,*,#292,.F.);
#383=ORIENTED_EDGE('',*,*,#293,.F.);
#384=ORIENTED_EDGE('',*,*,#294,.F.);
#385=ORIENTED_EDGE('',*,*,#293,.T.);
#386=ORIENTED_EDGE('',*,*,#295,.T.);
#387=ORIENTED_EDGE('',*,*,#296,.F.);
#388=ORIENTED_EDGE('',*,*,#297,.T.);
#389=ORIENTED_EDGE('',*,*,#298,.F.);
#390=ORIENTED_EDGE('',*,*,#299,.T.);
#391=ORIENTED_EDGE('',*,*,#300,.T.);
#392=ORIENTED_EDGE('',*,*,#301,.F.);
#393=ORIENTED_EDGE('',*,*,#302,.T.);
#394=ORIENTED_EDGE('',*,*,#303,.F.);
#395=ORIENTED_EDGE('',*,*,#304,.T.);
#396=ORIENTED_EDGE('',*,*,#305,.F.);
#397=ORIENTED_EDGE('',*,*,#306,.T.);
#398=ORIENTED_EDGE('',*,*,#307,.F.);
#399=ORIENTED_EDGE('',*,*,#308,.T.);
#400=ORIENTED_EDGE('',*,*,#309,.T.);
#401=ORIENTED_EDGE('',*,*,#310,.T.);
#402=ORIENTED_EDGE('',*,*,#311,.T.);
#403=ORIENTED_EDGE('',*,*,#292,.T.);
#404=ORIENTED_EDGE('',*,*,#312,.F.);
#405=ORIENTED_EDGE('',*,*,#313,.F.);
#406=ORIENTED_EDGE('',*,*,#295,.F.);
#407=ORIENTED_EDGE('',*,*,#314,.T.);
#408=ORIENTED_EDGE('',*,*,#315,.T.);
#409=ORIENTED_EDGE('',*,*,#307,.T.);
#410=ORIENTED_EDGE('',*,*,#316,.T.);
#411=ORIENTED_EDGE('',*,*,#315,.F.);
#412=ORIENTED_EDGE('',*,*,#317,.T.);
#413=ORIENTED_EDGE('',*,*,#318,.F.);
#414=ORIENTED_EDGE('',*,*,#300,.F.);
#415=ORIENTED_EDGE('',*,*,#319,.T.);
#416=ORIENTED_EDGE('',*,*,#320,.T.);
#417=ORIENTED_EDGE('',*,*,#305,.T.);
#418=ORIENTED_EDGE('',*,*,#321,.T.);
#419=ORIENTED_EDGE('',*,*,#316,.F.);
#420=ORIENTED_EDGE('',*,*,#306,.F.);
#421=ORIENTED_EDGE('',*,*,#320,.F.);
#422=ORIENTED_EDGE('',*,*,#322,.T.);
#423=ORIENTED_EDGE('',*,*,#323,.T.);
#424=ORIENTED_EDGE('',*,*,#324,.T.);
#425=ORIENTED_EDGE('',*,*,#303,.T.);
#426=ORIENTED_EDGE('',*,*,#325,.T.);
#427=ORIENTED_EDGE('',*,*,#321,.F.);
#428=ORIENTED_EDGE('',*,*,#304,.F.);
#429=ORIENTED_EDGE('',*,*,#324,.F.);
#430=ORIENTED_EDGE('',*,*,#326,.T.);
#431=ORIENTED_EDGE('',*,*,#327,.T.);
#432=ORIENTED_EDGE('',*,*,#328,.T.);
#433=ORIENTED_EDGE('',*,*,#301,.T.);
#434=ORIENTED_EDGE('',*,*,#318,.T.);
#435=ORIENTED_EDGE('',*,*,#325,.F.);
#436=ORIENTED_EDGE('',*,*,#302,.F.);
#437=ORIENTED_EDGE('',*,*,#328,.F.);
#438=ORIENTED_EDGE('',*,*,#329,.T.);
#439=ORIENTED_EDGE('',*,*,#296,.T.);
#440=ORIENTED_EDGE('',*,*,#313,.T.);
#441=ORIENTED_EDGE('',*,*,#330,.T.);
#442=ORIENTED_EDGE('',*,*,#331,.T.);
#443=ORIENTED_EDGE('',*,*,#331,.F.);
#444=ORIENTED_EDGE('',*,*,#332,.F.);
#445=ORIENTED_EDGE('',*,*,#333,.F.);
#446=ORIENTED_EDGE('',*,*,#297,.F.);
#447=ORIENTED_EDGE('',*,*,#291,.T.);
#448=ORIENTED_EDGE('',*,*,#334,.T.);
#449=ORIENTED_EDGE('',*,*,#335,.F.);
#450=ORIENTED_EDGE('',*,*,#332,.T.);
#451=ORIENTED_EDGE('',*,*,#330,.F.);
#452=ORIENTED_EDGE('',*,*,#312,.T.);
#453=ORIENTED_EDGE('',*,*,#336,.F.);
#454=ORIENTED_EDGE('',*,*,#337,.F.);
#455=ORIENTED_EDGE('',*,*,#338,.F.);
#456=ORIENTED_EDGE('',*,*,#339,.F.);
#457=ORIENTED_EDGE('',*,*,#314,.F.);
#458=ORIENTED_EDGE('',*,*,#322,.F.);
#459=ORIENTED_EDGE('',*,*,#319,.F.);
#460=ORIENTED_EDGE('',*,*,#326,.F.);
#461=ORIENTED_EDGE('',*,*,#323,.F.);
#462=ORIENTED_EDGE('',*,*,#329,.F.);
#463=ORIENTED_EDGE('',*,*,#327,.F.);
#464=ORIENTED_EDGE('',*,*,#317,.F.);
#465=ORIENTED_EDGE('',*,*,#298,.T.);
#466=ORIENTED_EDGE('',*,*,#333,.T.);
#467=ORIENTED_EDGE('',*,*,#335,.T.);
#468=ORIENTED_EDGE('',*,*,#340,.T.);
#469=ORIENTED_EDGE('',*,*,#294,.T.);
#470=ORIENTED_EDGE('',*,*,#299,.F.);
#471=ORIENTED_EDGE('',*,*,#340,.F.);
#472=ORIENTED_EDGE('',*,*,#334,.F.);
#473=ORIENTED_EDGE('',*,*,#308,.F.);
#474=ORIENTED_EDGE('',*,*,#341,.T.);
#475=ORIENTED_EDGE('',*,*,#339,.T.);
#476=ORIENTED_EDGE('',*,*,#341,.F.);
#477=ORIENTED_EDGE('',*,*,#309,.F.);
#478=ORIENTED_EDGE('',*,*,#342,.T.);
#479=ORIENTED_EDGE('',*,*,#338,.T.);
#480=ORIENTED_EDGE('',*,*,#342,.F.);
#481=ORIENTED_EDGE('',*,*,#310,.F.);
#482=ORIENTED_EDGE('',*,*,#343,.T.);
#483=ORIENTED_EDGE('',*,*,#337,.T.);
#484=ORIENTED_EDGE('',*,*,#343,.F.);
#485=ORIENTED_EDGE('',*,*,#311,.F.);
#486=ORIENTED_EDGE('',*,*,#344,.T.);
#487=ORIENTED_EDGE('',*,*,#336,.T.);
#488=ORIENTED_EDGE('',*,*,#344,.F.);
#489=PLANE('',#548);
#490=PLANE('',#551);
#491=PLANE('',#554);
#492=PLANE('',#557);
#493=PLANE('',#558);
#494=PLANE('',#559);
#495=PLANE('',#560);
#496=PLANE('',#561);
#497=PLANE('',#572);
#498=PLANE('',#575);
#499=PLANE('',#578);
#500=PLANE('',#581);
#501=PLANE('',#584);
#502=PLANE('',#587);
#503=PLANE('',#588);
#504=PLANE('',#595);
#505=ADVANCED_FACE('',(#39),#489,.T.);
#506=ADVANCED_FACE('',(#40),#490,.T.);
#507=ADVANCED_FACE('',(#41),#27,.T.);
#508=ADVANCED_FACE('',(#42),#491,.T.);
#509=ADVANCED_FACE('',(#43),#28,.T.);
#510=ADVANCED_FACE('',(#44),#492,.F.);
#511=ADVANCED_FACE('',(#45),#493,.T.);
#512=ADVANCED_FACE('',(#46),#494,.T.);
#513=ADVANCED_FACE('',(#47),#495,.F.);
#514=ADVANCED_FACE('',(#48,#13,#14,#15,#16,#17),#496,.T.);
#515=ADVANCED_FACE('',(#49),#497,.T.);
#516=ADVANCED_FACE('',(#50),#29,.F.);
#517=ADVANCED_FACE('',(#51),#498,.T.);
#518=ADVANCED_FACE('',(#52),#30,.F.);
#519=ADVANCED_FACE('',(#53),#499,.T.);
#520=ADVANCED_FACE('',(#54),#31,.F.);
#521=ADVANCED_FACE('',(#55),#500,.T.);
#522=ADVANCED_FACE('',(#56),#32,.F.);
#523=ADVANCED_FACE('',(#57),#501,.T.);
#524=ADVANCED_FACE('',(#58),#33,.T.);
#525=ADVANCED_FACE('',(#59),#502,.T.);
#526=ADVANCED_FACE('',(#60,#18,#19,#20,#21,#22),#503,.F.);
#527=ADVANCED_FACE('',(#61),#34,.T.);
#528=ADVANCED_FACE('',(#62),#504,.T.);
#529=ADVANCED_FACE('',(#63),#35,.F.);
#530=ADVANCED_FACE('',(#64),#36,.F.);
#531=ADVANCED_FACE('',(#65),#37,.F.);
#532=ADVANCED_FACE('',(#66),#38,.F.);
#533=CLOSED_SHELL('',(#505,#506,#507,#508,#509,#510,#511,#512));
#534=CLOSED_SHELL('',(#513,#514,#515,#516,#517,#518,#519,#520,#521,#522,
#523,#524,#525,#526,#527,#528,#529,#530,#531,#532));
#535=DERIVED_UNIT_ELEMENT(#537,1.);
#536=DERIVED_UNIT_ELEMENT(#908,-3.);
#537=(
MASS_UNIT()
NAMED_UNIT(*)
SI_UNIT(.KILO.,.GRAM.)
);
#538=DERIVED_UNIT((#535,#536));
#539=MEASURE_REPRESENTATION_ITEM('density measure',
POSITIVE_RATIO_MEASURE(7850.),#538);
#540=PROPERTY_DEFINITION_REPRESENTATION(#545,#542);
#541=PROPERTY_DEFINITION_REPRESENTATION(#546,#543);
#542=REPRESENTATION('material name',(#544),#905);
#543=REPRESENTATION('density',(#539),#905);
#544=DESCRIPTIVE_REPRESENTATION_ITEM('Steel','Steel');
#545=PROPERTY_DEFINITION('material property','material name',#915);
#546=PROPERTY_DEFINITION('material property','density of part',#915);
#547=AXIS2_PLACEMENT_3D('',#754,#600,#601);
#548=AXIS2_PLACEMENT_3D('',#755,#602,#603);
#549=AXIS2_PLACEMENT_3D('',#762,#606,#607);
#550=AXIS2_PLACEMENT_3D('',#766,#609,#610);
#551=AXIS2_PLACEMENT_3D('',#768,#612,#613);
#552=AXIS2_PLACEMENT_3D('',#774,#617,#618);
#553=AXIS2_PLACEMENT_3D('',#777,#620,#621);
#554=AXIS2_PLACEMENT_3D('',#778,#622,#623);
#555=AXIS2_PLACEMENT_3D('',#782,#626,#627);
#556=AXIS2_PLACEMENT_3D('',#785,#629,#630);
#557=AXIS2_PLACEMENT_3D('',#786,#631,#632);
#558=AXIS2_PLACEMENT_3D('',#790,#635,#636);
#559=AXIS2_PLACEMENT_3D('',#792,#638,#639);
#560=AXIS2_PLACEMENT_3D('',#793,#640,#641);
#561=AXIS2_PLACEMENT_3D('',#802,#646,#647);
#562=AXIS2_PLACEMENT_3D('',#806,#649,#650);
#563=AXIS2_PLACEMENT_3D('',#810,#652,#653);
#564=AXIS2_PLACEMENT_3D('',#816,#656,#657);
#565=AXIS2_PLACEMENT_3D('',#820,#659,#660);
#566=AXIS2_PLACEMENT_3D('',#824,#662,#663);
#567=AXIS2_PLACEMENT_3D('',#827,#665,#666);
#568=AXIS2_PLACEMENT_3D('',#829,#667,#668);
#569=AXIS2_PLACEMENT_3D('',#831,#669,#670);
#570=AXIS2_PLACEMENT_3D('',#833,#671,#672);
#571=AXIS2_PLACEMENT_3D('',#835,#673,#674);
#572=AXIS2_PLACEMENT_3D('',#836,#675,#676);
#573=AXIS2_PLACEMENT_3D('',#840,#679,#680);
#574=AXIS2_PLACEMENT_3D('',#843,#681,#682);
#575=AXIS2_PLACEMENT_3D('',#846,#685,#686);
#576=AXIS2_PLACEMENT_3D('',#850,#689,#690);
#577=AXIS2_PLACEMENT_3D('',#853,#691,#692);
#578=AXIS2_PLACEMENT_3D('',#856,#695,#696);
#579=AXIS2_PLACEMENT_3D('',#858,#698,#699);
#580=AXIS2_PLACEMENT_3D('',#861,#700,#701);
#581=AXIS2_PLACEMENT_3D('',#864,#704,#705);
#582=AXIS2_PLACEMENT_3D('',#866,#707,#708);
#583=AXIS2_PLACEMENT_3D('',#868,#709,#710);
#584=AXIS2_PLACEMENT_3D('',#870,#712,#713);
#585=AXIS2_PLACEMENT_3D('',#872,#715,#716);
#586=AXIS2_PLACEMENT_3D('',#874,#717,#718);
#587=AXIS2_PLACEMENT_3D('',#876,#720,#721);
#588=AXIS2_PLACEMENT_3D('',#880,#724,#725);
#589=AXIS2_PLACEMENT_3D('',#883,#727,#728);
#590=AXIS2_PLACEMENT_3D('',#885,#729,#730);
#591=AXIS2_PLACEMENT_3D('',#887,#731,#732);
#592=AXIS2_PLACEMENT_3D('',#889,#733,#734);
#593=AXIS2_PLACEMENT_3D('',#891,#735,#736);
#594=AXIS2_PLACEMENT_3D('',#892,#737,#738);
#595=AXIS2_PLACEMENT_3D('',#894,#740,#741);
#596=AXIS2_PLACEMENT_3D('',#895,#742,#743);
#597=AXIS2_PLACEMENT_3D('',#897,#745,#746);
#598=AXIS2_PLACEMENT_3D('',#899,#748,#749);
#599=AXIS2_PLACEMENT_3D('',#901,#751,#752);
#600=DIRECTION('axis',(0.,0.,1.));
#601=DIRECTION('refdir',(1.,0.,0.));
#602=DIRECTION('center_axis',(1.,0.,0.));
#603=DIRECTION('ref_axis',(0.,1.,0.));
#604=DIRECTION('',(0.,1.,-6.25477760352201E-17));
#605=DIRECTION('',(0.,5.84327907697451E-17,-1.));
#606=DIRECTION('center_axis',(-1.,0.,0.));
#607=DIRECTION('ref_axis',(0.,-0.707106781186541,-0.707106781186554));
#608=DIRECTION('',(0.,1.,0.));
#609=DIRECTION('center_axis',(-1.,0.,0.));
#610=DIRECTION('ref_axis',(0.,0.707106781186548,-0.707106781186548));
#611=DIRECTION('',(0.,0.,1.));
#612=DIRECTION('center_axis',(0.,1.,0.));
#613=DIRECTION('ref_axis',(0.,0.,1.));
#614=DIRECTION('',(-1.,0.,0.));
#615=DIRECTION('',(1.,0.,0.));
#616=DIRECTION('',(0.,0.,-1.));
#617=DIRECTION('center_axis',(1.,0.,0.));
#618=DIRECTION('ref_axis',(0.,0.707106781186548,-0.707106781186548));
#619=DIRECTION('',(-1.,0.,0.));
#620=DIRECTION('center_axis',(1.,0.,0.));
#621=DIRECTION('ref_axis',(0.,0.707106781186548,-0.707106781186548));
#622=DIRECTION('center_axis',(0.,0.,-1.));
#623=DIRECTION('ref_axis',(0.,1.,0.));
#624=DIRECTION('',(1.,0.,0.));
#625=DIRECTION('',(0.,-1.,0.));
#626=DIRECTION('center_axis',(1.,0.,0.));
#627=DIRECTION('ref_axis',(0.,-0.707106781186541,-0.707106781186554));
#628=DIRECTION('',(-1.,0.,0.));
#629=DIRECTION('center_axis',(1.,0.,0.));
#630=DIRECTION('ref_axis',(0.,-0.707106781186541,-0.707106781186554));
#631=DIRECTION('center_axis',(1.,0.,0.));
#632=DIRECTION('ref_axis',(0.,1.,0.));
#633=DIRECTION('',(0.,-1.,6.25477760352201E-17));
#634=DIRECTION('',(0.,-5.84327907697451E-17,1.));
#635=DIRECTION('center_axis',(0.,-1.,-5.84327907697451E-17));
#636=DIRECTION('ref_axis',(0.,5.84327907697451E-17,-1.));
#637=DIRECTION('',(1.,0.,0.));
#638=DIRECTION('center_axis',(0.,6.25477760352201E-17,1.));
#639=DIRECTION('ref_axis',(1.,0.,0.));
#640=DIRECTION('center_axis',(0.,6.25477760352201E-17,1.));
#641=DIRECTION('ref_axis',(1.,0.,0.));
#642=DIRECTION('',(0.,-1.,6.25477760352201E-17));
#643=DIRECTION('',(-1.,0.,0.));
#644=DIRECTION('',(0.,1.,-6.25477760352201E-17));
#645=DIRECTION('',(1.,0.,0.));
#646=DIRECTION('center_axis',(1.,0.,0.));
#647=DIRECTION('ref_axis',(0.,1.,0.));
#648=DIRECTION('',(0.,0.,1.));
#649=DIRECTION('center_axis',(-1.,0.,0.));
#650=DIRECTION('ref_axis',(0.,0.707106781186548,0.707106781186548));
#651=DIRECTION('',(0.,-1.,6.25477760352201E-17));
#652=DIRECTION('center_axis',(-1.,0.,0.));
#653=DIRECTION('ref_axis',(0.,-0.707106781186548,0.707106781186548));
#654=DIRECTION('',(0.,5.84327907697451E-17,-1.));
#655=DIRECTION('',(0.,1.,0.));
#656=DIRECTION('center_axis',(1.,0.,0.));
#657=DIRECTION('ref_axis',(0.,0.707106781186541,0.707106781186554));
#658=DIRECTION('',(0.,0.,-1.));
#659=DIRECTION('center_axis',(1.,0.,0.));
#660=DIRECTION('ref_axis',(0.,0.707106781186546,-0.707106781186549));
#661=DIRECTION('',(0.,-1.,0.));
#662=DIRECTION('center_axis',(1.,0.,0.));
#663=DIRECTION('ref_axis',(0.,-0.707106781186546,-0.707106781186549));
#664=DIRECTION('',(0.,-7.90194323576624E-17,1.));
#665=DIRECTION('center_axis',(1.,0.,0.));
#666=DIRECTION('ref_axis',(0.,-0.707106781186541,0.707106781186554));
#667=DIRECTION('center_axis',(-1.,0.,0.));
#668=DIRECTION('ref_axis',(0.,1.,0.));
#669=DIRECTION('center_axis',(-1.,0.,0.));
#670=DIRECTION('ref_axis',(0.,1.,0.));
#671=DIRECTION('center_axis',(-1.,0.,0.));
#672=DIRECTION('ref_axis',(0.,1.,0.));
#673=DIRECTION('center_axis',(-1.,0.,0.));
#674=DIRECTION('ref_axis',(0.,1.,0.));
#675=DIRECTION('center_axis',(0.,1.,0.));
#676=DIRECTION('ref_axis',(0.,0.,1.));
#677=DIRECTION('',(0.,0.,-1.));
#678=DIRECTION('',(-1.,0.,0.));
#679=DIRECTION('center_axis',(1.,0.,0.));
#680=DIRECTION('ref_axis',(0.,-0.707106781186541,0.707106781186554));
#681=DIRECTION('center_axis',(-1.,0.,0.));
#682=DIRECTION('ref_axis',(0.,-0.707106781186541,0.707106781186554));
#683=DIRECTION('',(1.,0.,0.));
#684=DIRECTION('',(-1.,0.,0.));
#685=DIRECTION('center_axis',(0.,0.,-1.));
#686=DIRECTION('ref_axis',(0.,1.,0.));
#687=DIRECTION('',(0.,1.,0.));
#688=DIRECTION('',(-1.,0.,0.));
#689=DIRECTION('center_axis',(1.,0.,0.));
#690=DIRECTION('ref_axis',(0.,-0.707106781186546,-0.707106781186549));
#691=DIRECTION('center_axis',(-1.,0.,0.));
#692=DIRECTION('ref_axis',(0.,-0.707106781186546,-0.707106781186549));
#693=DIRECTION('',(1.,0.,0.));
#694=DIRECTION('',(-1.,0.,0.));
#695=DIRECTION('center_axis',(0.,1.,7.90194323576624E-17));
#696=DIRECTION('ref_axis',(0.,-7.90194323576624E-17,1.));
#697=DIRECTION('',(0.,-7.90194323576624E-17,1.));
#698=DIRECTION('center_axis',(1.,0.,0.));
#699=DIRECTION('ref_axis',(0.,0.707106781186546,-0.707106781186549));
#700=DIRECTION('center_axis',(-1.,0.,0.));
#701=DIRECTION('ref_axis',(0.,0.707106781186546,-0.707106781186549));
#702=DIRECTION('',(1.,0.,0.));
#703=DIRECTION('',(-1.,0.,0.));
#704=DIRECTION('center_axis',(0.,0.,1.));
#705=DIRECTION('ref_axis',(0.,-1.,0.));
#706=DIRECTION('',(0.,-1.,0.));
#707=DIRECTION('center_axis',(1.,0.,0.));
#708=DIRECTION('ref_axis',(0.,0.707106781186541,0.707106781186554));
#709=DIRECTION('center_axis',(-1.,0.,0.));
#710=DIRECTION('ref_axis',(0.,0.707106781186541,0.707106781186554));
#711=DIRECTION('',(1.,0.,0.));
#712=DIRECTION('center_axis',(0.,-1.,0.));
#713=DIRECTION('ref_axis',(0.,0.,-1.));
#714=DIRECTION('',(0.,0.,-1.));
#715=DIRECTION('center_axis',(1.,0.,0.));
#716=DIRECTION('ref_axis',(0.,0.707106781186548,0.707106781186548));
#717=DIRECTION('center_axis',(1.,0.,0.));
#718=DIRECTION('ref_axis',(0.,0.707106781186548,0.707106781186548));
#719=DIRECTION('',(1.,0.,0.));
#720=DIRECTION('center_axis',(0.,6.25477760352201E-17,1.));
#721=DIRECTION('ref_axis',(0.,-1.,6.25477760352201E-17));
#722=DIRECTION('',(0.,1.,-6.25477760352201E-17));
#723=DIRECTION('',(-1.,0.,0.));
#724=DIRECTION('center_axis',(1.,0.,0.));
#725=DIRECTION('ref_axis',(0.,1.,0.));
#726=DIRECTION('',(0.,-5.84327907697451E-17,1.));
#727=DIRECTION('center_axis',(1.,0.,0.));
#728=DIRECTION('ref_axis',(0.,-0.707106781186548,0.707106781186548));
#729=DIRECTION('center_axis',(-1.,0.,0.));
#730=DIRECTION('ref_axis',(0.,1.,0.));
#731=DIRECTION('center_axis',(-1.,0.,0.));
#732=DIRECTION('ref_axis',(0.,1.,0.));
#733=DIRECTION('center_axis',(-1.,0.,0.));
#734=DIRECTION('ref_axis',(0.,1.,0.));
#735=DIRECTION('center_axis',(-1.,0.,0.));
#736=DIRECTION('ref_axis',(0.,1.,0.));
#737=DIRECTION('center_axis',(1.,0.,0.));
#738=DIRECTION('ref_axis',(0.,-0.707106781186548,0.707106781186548));
#739=DIRECTION('',(1.,0.,0.));
#740=DIRECTION('center_axis',(0.,-1.,-5.84327907697451E-17));
#741=DIRECTION('ref_axis',(0.,5.84327907697451E-17,-1.));
#742=DIRECTION('center_axis',(1.,0.,0.));
#743=DIRECTION('ref_axis',(0.,1.,0.));
#744=DIRECTION('',(-1.,0.,0.));
#745=DIRECTION('center_axis',(1.,0.,0.));
#746=DIRECTION('ref_axis',(0.,1.,0.));
#747=DIRECTION('',(-1.,0.,0.));
#748=DIRECTION('center_axis',(1.,0.,0.));
#749=DIRECTION('ref_axis',(0.,1.,0.));
#750=DIRECTION('',(-1.,0.,0.));
#751=DIRECTION('center_axis',(1.,0.,0.));
#752=DIRECTION('ref_axis',(0.,1.,0.));
#753=DIRECTION('',(-1.,0.,0.));
#754=CARTESIAN_POINT('',(0.,0.,0.));
#755=CARTESIAN_POINT('Origin',(3.,0.,1.77635683940025E-14));
#756=CARTESIAN_POINT('',(3.,-142.,-23.));
#757=CARTESIAN_POINT('',(3.,142.,-23.));
#758=CARTESIAN_POINT('',(3.,-1.43859884881006E-15,-23.));
#759=CARTESIAN_POINT('',(3.,-142.,-150.));
#760=CARTESIAN_POINT('',(3.,-142.,-152.));
#761=CARTESIAN_POINT('',(3.,-140.,-152.));
#762=CARTESIAN_POINT('Origin',(3.,-140.,-150.));
#763=CARTESIAN_POINT('',(3.,140.,-152.));
#764=CARTESIAN_POINT('',(3.,142.,-152.));
#765=CARTESIAN_POINT('',(3.,142.,-150.));
#766=CARTESIAN_POINT('Origin',(3.,140.,-150.));
#767=CARTESIAN_POINT('',(3.,142.,152.));
#768=CARTESIAN_POINT('Origin',(0.,142.,-152.));
#769=CARTESIAN_POINT('',(0.,142.,-23.));
#770=CARTESIAN_POINT('',(0.75,142.,-23.));
#771=CARTESIAN_POINT('',(0.,142.,-150.));
#772=CARTESIAN_POINT('',(0.,142.,-150.));
#773=CARTESIAN_POINT('',(0.,142.,152.));
#774=CARTESIAN_POINT('Origin',(0.,140.,-150.));
#775=CARTESIAN_POINT('',(0.,140.,-152.));
#776=CARTESIAN_POINT('',(0.,140.,-152.));
#777=CARTESIAN_POINT('Origin',(0.,140.,-150.));
#778=CARTESIAN_POINT('Origin',(0.,-142.,-152.));
#779=CARTESIAN_POINT('',(0.,-140.,-152.));
#780=CARTESIAN_POINT('',(0.,-140.,-152.));
#781=CARTESIAN_POINT('',(0.,142.,-152.));
#782=CARTESIAN_POINT('Origin',(0.,-140.,-150.));
#783=CARTESIAN_POINT('',(0.,-142.,-150.));
#784=CARTESIAN_POINT('',(0.,-142.,-150.));
#785=CARTESIAN_POINT('Origin',(0.,-140.,-150.));
#786=CARTESIAN_POINT('Origin',(0.,0.,1.77635683940025E-14));
#787=CARTESIAN_POINT('',(0.,-142.,-23.));
#788=CARTESIAN_POINT('',(0.,-1.43859884881006E-15,-23.));
#789=CARTESIAN_POINT('',(0.,-142.,-152.));
#790=CARTESIAN_POINT('Origin',(0.,-142.,152.));
#791=CARTESIAN_POINT('',(0.75,-142.,-23.));
#792=CARTESIAN_POINT('Origin',(1.5,-1.43859884881006E-15,-23.));
#793=CARTESIAN_POINT('Origin',(1.5,-1.43859884881006E-15,-23.));
#794=CARTESIAN_POINT('',(0.,142.,-23.));
#795=CARTESIAN_POINT('',(0.,-142.,-23.));
#796=CARTESIAN_POINT('',(0.,-1.43859884881006E-15,-23.));
#797=CARTESIAN_POINT('',(3.,142.,-23.));
#798=CARTESIAN_POINT('',(0.75,142.,-23.));
#799=CARTESIAN_POINT('',(3.,-142.,-23.));
#800=CARTESIAN_POINT('',(3.,-1.43859884881006E-15,-23.));
#801=CARTESIAN_POINT('',(0.75,-142.,-23.));
#802=CARTESIAN_POINT('Origin',(3.,0.,1.77635683940025E-14));
#803=CARTESIAN_POINT('',(3.,142.,150.));
#804=CARTESIAN_POINT('',(3.,142.,152.));
#805=CARTESIAN_POINT('',(3.,140.,152.));
#806=CARTESIAN_POINT('Origin',(3.,140.,150.));
#807=CARTESIAN_POINT('',(3.,-140.,152.));
#808=CARTESIAN_POINT('',(3.,-142.,152.));
#809=CARTESIAN_POINT('',(3.,-142.,150.));
#810=CARTESIAN_POINT('Origin',(3.,-140.,150.));
#811=CARTESIAN_POINT('',(3.,-142.,-152.));
#812=CARTESIAN_POINT('',(3.,-70.2,121.2));
#813=CARTESIAN_POINT('',(3.,70.2,121.2));
#814=CARTESIAN_POINT('',(3.,-71.2,121.2));
#815=CARTESIAN_POINT('',(3.,71.2,120.2));
#816=CARTESIAN_POINT('Origin',(3.,70.2,120.2));
#817=CARTESIAN_POINT('',(3.,71.2,9.79999999999999));
#818=CARTESIAN_POINT('',(3.,71.2,121.2));
#819=CARTESIAN_POINT('',(3.,70.2,8.79999999999999));
#820=CARTESIAN_POINT('Origin',(3.,70.2,9.79999999999999));
#821=CARTESIAN_POINT('',(3.,-70.2,8.79999999999999));
#822=CARTESIAN_POINT('',(3.,71.2,8.79999999999999));
#823=CARTESIAN_POINT('',(3.,-71.2,9.79999999999999));
#824=CARTESIAN_POINT('Origin',(3.,-70.2,9.79999999999999));
#825=CARTESIAN_POINT('',(3.,-71.2,120.2));
#826=CARTESIAN_POINT('',(3.,-71.2,8.79999999999999));
#827=CARTESIAN_POINT('Origin',(3.,-70.2,120.2));
#828=CARTESIAN_POINT('',(3.,68.3,5.00000000000002));
#829=CARTESIAN_POINT('Origin',(3.,70.,5.00000000000002));
#830=CARTESIAN_POINT('',(3.,68.3,125.));
#831=CARTESIAN_POINT('Origin',(3.,70.,125.));
#832=CARTESIAN_POINT('',(3.,-71.7,125.));
#833=CARTESIAN_POINT('Origin',(3.,-70.,125.));
#834=CARTESIAN_POINT('',(3.,-71.6999999999999,5.00000000000002));
#835=CARTESIAN_POINT('Origin',(3.,-69.9999999999999,5.00000000000002));
#836=CARTESIAN_POINT('Origin',(0.,142.,-152.));
#837=CARTESIAN_POINT('',(0.,142.,150.));
#838=CARTESIAN_POINT('',(0.,142.,152.));
#839=CARTESIAN_POINT('',(0.,142.,150.));
#840=CARTESIAN_POINT('Origin',(0.,-70.2,120.2));
#841=CARTESIAN_POINT('',(0.,-71.2,120.2));
#842=CARTESIAN_POINT('',(0.,-70.2,121.2));
#843=CARTESIAN_POINT('Origin',(0.,-70.2,120.2));
#844=CARTESIAN_POINT('',(0.,-70.2,121.2));
#845=CARTESIAN_POINT('',(0.,-71.2,120.2));
#846=CARTESIAN_POINT('Origin',(0.,-71.2,121.2));
#847=CARTESIAN_POINT('',(0.,70.2,121.2));
#848=CARTESIAN_POINT('',(0.,-71.2,121.2));
#849=CARTESIAN_POINT('',(0.,70.2,121.2));
#850=CARTESIAN_POINT('Origin',(0.,-70.2,9.79999999999999));
#851=CARTESIAN_POINT('',(0.,-70.2,8.79999999999999));
#852=CARTESIAN_POINT('',(0.,-71.2,9.79999999999999));
#853=CARTESIAN_POINT('Origin',(0.,-70.2,9.79999999999999));
#854=CARTESIAN_POINT('',(0.,-71.2,9.79999999999999));
#855=CARTESIAN_POINT('',(0.,-70.2,8.79999999999999));
#856=CARTESIAN_POINT('Origin',(0.,-71.2,8.79999999999999));
#857=CARTESIAN_POINT('',(0.,-71.2,8.79999999999999));
#858=CARTESIAN_POINT('Origin',(0.,70.2,9.79999999999999));
#859=CARTESIAN_POINT('',(0.,71.2,9.79999999999999));
#860=CARTESIAN_POINT('',(0.,70.2,8.79999999999999));
#861=CARTESIAN_POINT('Origin',(0.,70.2,9.79999999999999));
#862=CARTESIAN_POINT('',(0.,70.2,8.79999999999999));
#863=CARTESIAN_POINT('',(0.,71.2,9.79999999999999));
#864=CARTESIAN_POINT('Origin',(0.,71.2,8.79999999999999));
#865=CARTESIAN_POINT('',(0.,71.2,8.79999999999999));
#866=CARTESIAN_POINT('Origin',(0.,70.2,120.2));
#867=CARTESIAN_POINT('',(0.,71.2,120.2));
#868=CARTESIAN_POINT('Origin',(0.,70.2,120.2));
#869=CARTESIAN_POINT('',(0.,71.2,120.2));
#870=CARTESIAN_POINT('Origin',(0.,71.2,121.2));
#871=CARTESIAN_POINT('',(0.,71.2,121.2));
#872=CARTESIAN_POINT('Origin',(0.,140.,150.));
#873=CARTESIAN_POINT('',(0.,140.,152.));
#874=CARTESIAN_POINT('Origin',(0.,140.,150.));
#875=CARTESIAN_POINT('',(0.,140.,152.));
#876=CARTESIAN_POINT('Origin',(0.,142.,152.));
#877=CARTESIAN_POINT('',(0.,-140.,152.));
#878=CARTESIAN_POINT('',(0.,-142.,152.));
#879=CARTESIAN_POINT('',(0.,-140.,152.));
#880=CARTESIAN_POINT('Origin',(0.,0.,1.77635683940025E-14));
#881=CARTESIAN_POINT('',(0.,-142.,150.));
#882=CARTESIAN_POINT('',(0.,-142.,-152.));
#883=CARTESIAN_POINT('Origin',(0.,-140.,150.));
#884=CARTESIAN_POINT('',(0.,-71.6999999999999,5.00000000000002));
#885=CARTESIAN_POINT('Origin',(0.,-69.9999999999999,5.00000000000002));
#886=CARTESIAN_POINT('',(0.,-71.7,125.));
#887=CARTESIAN_POINT('Origin',(0.,-70.,125.));
#888=CARTESIAN_POINT('',(0.,68.3,125.));
#889=CARTESIAN_POINT('Origin',(0.,70.,125.));
#890=CARTESIAN_POINT('',(0.,68.3,5.00000000000002));
#891=CARTESIAN_POINT('Origin',(0.,70.,5.00000000000002));
#892=CARTESIAN_POINT('Origin',(0.,-140.,150.));
#893=CARTESIAN_POINT('',(0.,-142.,150.));
#894=CARTESIAN_POINT('Origin',(0.,-142.,152.));
#895=CARTESIAN_POINT('Origin',(0.,70.,5.00000000000002));
#896=CARTESIAN_POINT('',(0.,68.3,5.00000000000002));
#897=CARTESIAN_POINT('Origin',(0.,70.,125.));
#898=CARTESIAN_POINT('',(0.,68.3,125.));
#899=CARTESIAN_POINT('Origin',(0.,-70.,125.));
#900=CARTESIAN_POINT('',(0.,-71.7,125.));
#901=CARTESIAN_POINT('Origin',(0.,-69.9999999999999,5.00000000000002));
#902=CARTESIAN_POINT('',(0.,-71.6999999999999,5.00000000000002));
#903=UNCERTAINTY_MEASURE_WITH_UNIT(LENGTH_MEASURE(0.01),#907,
'DISTANCE_ACCURACY_VALUE',
'Maximum model space distance between geometric entities at asserted c
onnectivities');
#904=UNCERTAINTY_MEASURE_WITH_UNIT(LENGTH_MEASURE(0.01),#907,
'DISTANCE_ACCURACY_VALUE',
'Maximum model space distance between geometric entities at asserted c
onnectivities');
#905=(
GEOMETRIC_REPRESENTATION_CONTEXT(3)
GLOBAL_UNCERTAINTY_ASSIGNED_CONTEXT((#903))
GLOBAL_UNIT_ASSIGNED_CONTEXT((#907,#909,#910))
REPRESENTATION_CONTEXT('','3D')
);
#906=(
GEOMETRIC_REPRESENTATION_CONTEXT(3)
GLOBAL_UNCERTAINTY_ASSIGNED_CONTEXT((#904))
GLOBAL_UNIT_ASSIGNED_CONTEXT((#907,#909,#910))
REPRESENTATION_CONTEXT('','3D')
);
#907=(
LENGTH_UNIT()
NAMED_UNIT(*)
SI_UNIT(.MILLI.,.METRE.)
);
#908=(
LENGTH_UNIT()
NAMED_UNIT(*)
SI_UNIT($,.METRE.)
);
#909=(
NAMED_UNIT(*)
PLANE_ANGLE_UNIT()
SI_UNIT($,.RADIAN.)
);
#910=(
NAMED_UNIT(*)
SI_UNIT($,.STERADIAN.)
SOLID_ANGLE_UNIT()
);
#911=SHAPE_DEFINITION_REPRESENTATION(#912,#913);
#912=PRODUCT_DEFINITION_SHAPE('',$,#915);
#913=SHAPE_REPRESENTATION('',(#547),#905);
#914=PRODUCT_DEFINITION_CONTEXT('part definition',#919,'design');
#915=PRODUCT_DEFINITION('2026-08-29-23-02-58-721','(Unsaved)',#916,#914);
#916=PRODUCT_DEFINITION_FORMATION('',$,#921);
#917=PRODUCT_RELATED_PRODUCT_CATEGORY('(Unsaved)','(Unsaved)',(#921));
#918=APPLICATION_PROTOCOL_DEFINITION('international standard',
'automotive_design',2009,#919);
#919=APPLICATION_CONTEXT(
'Core Data for Automotive Mechanical Design Process');
#920=PRODUCT_CONTEXT('part definition',#919,'mechanical');
#921=PRODUCT('2026-08-29-23-02-58-721','(Unsaved)',$,(#920));
#922=PRESENTATION_STYLE_ASSIGNMENT((#923));
#923=SURFACE_STYLE_USAGE(.BOTH.,#924);
#924=SURFACE_SIDE_STYLE('',(#925));
#925=SURFACE_STYLE_FILL_AREA(#926);
#926=FILL_AREA_STYLE('Steel - Satin',(#927));
#927=FILL_AREA_STYLE_COLOUR('Steel - Satin',#928);
#928=COLOUR_RGB('Steel - Satin',0.627450980392157,0.627450980392157,0.627450980392157);
ENDSEC;
END-ISO-10303-21;
